# xmcd CD database file
#
# Track frame offsets:
#	150
#	26994
#	46641
#	78250
#	101016
#	125738
#	137530
#	158357
#	180064
#	202115
#	224802
#	242082
#	264421
#
# Disc length: 4438 seconds
#
# Revision: 2
# Processed by: cddbd v1.4PL0 Copyright (c) Steve Scherf et al.
# Submitted via: CDex 1.50Beta7
#
DISCID=ad11540d
DTITLE=Verve - Urban Hymns
DYEAR=1997
DGENRE=Alternative
TTITLE0=Bitter Sweet Symphony
TTITLE1=Sonnet
TTITLE2=The Rolling People
TTITLE3=The Drugs Don't Work
TTITLE4=Catching The Butterfly
TTITLE5=Neon Wildness
TTITLE6=Space And Time
TTITLE7=Weeping Willow
TTITLE8=Lucky Man
TTITLE9=One Day
TTITLE10=This Time
TTITLE11=Velvet Morning
TTITLE12=Come On
EXTD=YEAR: 1997
EXTT0=
EXTT1=
EXTT2=
EXTT3=
EXTT4=
EXTT5=
EXTT6=
EXTT7=
EXTT8=
EXTT9=
EXTT10=
EXTT11=
EXTT12=
PLAYORDER=
